<svg width="24" height="24" viewBox="0 0 24 24" fill="none" xmlns="http://www.w3.org/2000/svg">
<path d="M23.6094 21.7203C23.8605 21.9696 24.0023 22.3085 24.0035 22.6623C24.0048 23.0161 23.8654 23.3559 23.6161 23.607C23.3668 23.8581 23.028 23.9998 22.6741 24.0011C22.3203 24.0023 21.9805 23.863 21.7294 23.6137L12.0068 13.8937L2.26676 23.6137C2.01569 23.863 1.67586 24.0023 1.32204 24.0011C0.968226 23.9998 0.629396 23.8581 0.380092 23.607C0.130789 23.3559 -0.00856612 23.0161 -0.00731588 22.6623C-0.00606564 22.3085 0.135687 21.9696 0.386759 21.7203L10.1134 12.0003L0.390759 2.28301C0.140957 2.03127 0.000781044 1.69099 0.000781044 1.33634C0.000781044 0.981694 0.140957 0.64142 0.390759 0.389677C0.640576 0.141342 0.978511 0.00195313 1.33076 0.00195312C1.68301 0.00195313 2.02094 0.141342 2.27076 0.389677L12.0041 10.123L21.7268 0.389677C21.9766 0.141342 22.3145 0.00195312 22.6668 0.00195312C23.019 0.00195313 23.3569 0.141342 23.6068 0.389677C23.8566 0.64142 23.9967 0.981694 23.9967 1.33634C23.9967 1.69099 23.8566 2.03127 23.6068 2.28301L13.8868 12.0003L23.6094 21.7203Z" fill="#3E0563"/>
</svg>
