<svg width="32" height="32" viewBox="0 0 32 32" fill="none" xmlns="http://www.w3.org/2000/svg">
<path d="M30.5032 8.25888H1.49677C0.670968 8.25888 0 7.5363 0 6.7105C0 5.88469 0.670968 5.16211 1.49677 5.16211H30.5032C31.329 5.16211 32 5.88469 32 6.7105C32 7.5363 31.329 8.25888 30.5032 8.25888Z" fill="#3E0563"/>
<path d="M30.5032 17.5499H1.49677C0.670968 17.5499 0 16.8273 0 16.0015C0 15.1757 0.670968 14.4531 1.49677 14.4531H30.5032C31.329 14.4531 32 15.1757 32 16.0015C32 16.8273 31.329 17.5499 30.5032 17.5499Z" fill="#3E0563"/>
<path d="M30.5032 26.839H1.49677C0.670968 26.839 0 26.1164 0 25.2906C0 24.4648 0.670968 23.7422 1.49677 23.7422H30.5032C31.329 23.7422 32 24.4648 32 25.2906C32 26.1164 31.329 26.839 30.5032 26.839Z" fill="#3E0563"/>
<path d="M30.5029 23.7422H23.5352L26.5287 26.839H30.4513C31.2771 26.839 31.9481 26.1164 31.9481 25.2906C31.9997 24.4648 31.3287 23.7422 30.5029 23.7422Z" fill="#3E0563"/>
<path d="M30.5035 14.4531H14.3486L17.3422 17.5499H30.4519C31.2777 17.5499 31.9486 16.8273 31.9486 16.0015C31.9486 15.1757 31.3293 14.4531 30.5035 14.4531Z" fill="#3E0563"/>
<path d="M30.5031 5.16211H5.16113L8.15468 8.25888H30.4515C31.2773 8.25888 31.9482 7.5363 31.9482 6.7105C31.9998 5.88469 31.3289 5.16211 30.5031 5.16211Z" fill="#3E0563"/>
</svg>
